<svg width="74" height="75" viewBox="0 0 74 75" fill="none" xmlns="http://www.w3.org/2000/svg">
<g clip-path="url(#clip0_308_3)">
<path d="M63.4286 0.549805H10.5714C4.73299 0.549805 0 5.28279 0 11.1212V63.9784C0 69.8168 4.73299 74.5498 10.5714 74.5498H63.4286C69.267 74.5498 74 69.8168 74 63.9784V11.1212C74 5.28279 69.267 0.549805 63.4286 0.549805Z" fill="#535353"/>
<path fill-rule="evenodd" clip-rule="evenodd" d="M36.959 58.3331C46.6236 58.3331 54.4583 50.4984 54.4583 40.8338C54.4583 31.1692 46.6236 23.3345 36.959 23.3345C27.2944 23.3345 19.4597 31.1692 19.4597 40.8338C19.4597 50.4984 27.2944 58.3331 36.959 58.3331ZM36.959 61.9555C48.6242 61.9555 58.0807 52.4991 58.0807 40.8338C58.0807 29.1686 48.6242 19.712 36.959 19.712C25.2937 19.712 15.8372 29.1686 15.8372 40.8338C15.8372 52.4991 25.2937 61.9555 36.959 61.9555Z" fill="#EFF2F6"/>
<path d="M23.0777 55.2799C23.8116 54.4913 25.0458 54.4469 25.8345 55.1807C26.6231 55.9147 26.6674 57.1489 25.9335 57.9375L20.4918 63.7852C19.7579 64.5739 18.5236 64.6183 17.7351 63.8844C16.9464 63.1505 16.902 61.9162 17.6359 61.1277L23.0777 55.2799Z" fill="#EFF2F6"/>
<path d="M48.2142 57.8499C47.5077 57.0367 47.5942 55.8047 48.4074 55.0982C49.2207 54.3917 50.4527 54.4783 51.1592 55.2914L56.3979 61.3217C57.1045 62.1349 57.018 63.3669 56.2047 64.0734C55.3915 64.7799 54.1596 64.6934 53.453 63.8802L48.2142 57.8499Z" fill="#EFF2F6"/>
<path fill-rule="evenodd" clip-rule="evenodd" d="M21.9947 18.1191C19.6498 16.8562 16.6608 17.2098 14.6727 19.1828C12.6847 21.1557 12.3084 24.142 13.5534 26.4964L21.9947 18.1191ZM24.7876 15.6022C26.4645 16.8088 26.2368 19.0128 25.0726 20.1682L15.5789 29.5898C14.4147 30.7452 12.2091 30.9562 11.0153 29.2702C8.28709 25.4168 8.65857 20.0477 12.121 16.6116C15.5835 13.1754 20.9551 12.8448 24.7876 15.6022Z" fill="#EFF2F6"/>
<path fill-rule="evenodd" clip-rule="evenodd" d="M52.026 18.1079C54.3759 16.8541 57.3635 17.2192 59.3439 19.1998C61.3243 21.1805 61.689 24.1682 60.4349 26.5178L52.026 18.1079ZM49.2429 15.5802C47.5613 16.7803 47.7806 18.9851 48.9404 20.145L58.3974 29.6033C59.5571 30.7632 61.762 30.9827 62.9623 29.3012C65.7054 25.4584 65.3546 20.088 61.9055 16.6385C58.4563 13.1889 53.086 12.8375 49.2429 15.5802Z" fill="#EFF2F6"/>
<path d="M34.1777 41.7283C34.1777 41.0063 34.7669 40.421 35.4937 40.421H45.6481C46.3747 40.421 46.9639 41.0063 46.9639 41.7283C46.9639 42.4502 46.3747 43.0354 45.6481 43.0354H35.4937C34.7669 43.0354 34.1777 42.4502 34.1777 41.7283Z" fill="#BBBBBB"/>
<path d="M35.9076 31.4373C36.3716 30.8773 37.2016 30.7994 37.7616 31.2634L43.8199 36.2831C44.3799 36.7471 44.4577 37.5772 43.9937 38.1371C43.5297 38.6972 42.6996 38.775 42.1397 38.311L36.0814 33.2913C35.5214 32.8273 35.4436 31.9973 35.9076 31.4373Z" fill="#FFC01E"/>
<path d="M36.5851 33.3539L34.668 35.3556C36.4664 34.2198 36.4135 34.4841 38.5487 35.2291L36.5851 33.3539Z" fill="#FFC01E"/>
<path d="M40.6281 27.1283C40.1011 26.5949 39.2364 26.6073 38.725 27.1553L27.9039 38.9788C27.1116 40.0277 26.6106 42.6966 27.9039 44.3864C31.2013 48.2731 35.946 53.7232 40.0096 50.2719L43.0098 47.5045C43.4737 47.0636 43.6761 46.1158 43.2836 45.6102C42.836 45.0335 41.8972 45.1147 41.3611 45.6102L39.0541 47.708C36.3645 50.5879 31.7542 44.807 30.0865 42.7159L30.0711 42.6966C29.2066 41.6127 30.2924 40.2258 30.2924 40.2258L35.0462 35.1796L40.581 29.0291C41.1326 28.5235 41.1541 27.6606 40.6281 27.1283Z" fill="#FFC01E"/>
<path d="M38.7857 27.1081C37.7194 28.1251 29.2857 37.1127 27.9575 38.8865C26.6293 40.6603 27.0868 43.5227 27.8797 44.3684C28.6725 45.2141 30.8925 47.9098 31.6325 48.3855C32.3725 48.8612 34.4832 47.7125 33.5354 46.4827C32.5877 45.2528 30.8718 43.9006 30.1611 42.6235C29.4504 41.3462 29.9715 40.7328 30.398 40.1873C30.8245 39.6419 32.6962 37.6093 32.6962 37.6093C32.6962 37.6093 39.4254 30.4665 40.6576 29.0002C41.8898 27.5338 39.852 26.091 38.7857 27.1081Z" fill="#EFF2F6"/>
</g>
<defs>
<clipPath id="clip0_308_3">
<rect width="74" height="74" fill="white" transform="translate(0 0.549805)"/>
</clipPath>
</defs>
</svg>
