<svg width="23" height="23" viewBox="0 0 23 23" fill="none" xmlns="http://www.w3.org/2000/svg">
<g id="Extension" clip-path="url(#clip0_319_59)">
<path id="Vector" d="M19.2916 10.3107H17.9166V6.64404C17.9166 5.63571 17.0916 4.81071 16.0833 4.81071H12.4166V3.43571C12.4166 2.17071 11.3899 1.14404 10.1249 1.14404C8.85992 1.14404 7.83325 2.17071 7.83325 3.43571V4.81071H4.16659C3.15825 4.81071 2.34242 5.63571 2.34242 6.64404V10.1274H3.70825C5.07409 10.1274 6.18325 11.2365 6.18325 12.6024C6.18325 13.9682 5.07409 15.0774 3.70825 15.0774H2.33325V18.5607C2.33325 19.569 3.15825 20.394 4.16659 20.394H7.64992V19.019C7.64992 17.6532 8.75909 16.544 10.1249 16.544C11.4908 16.544 12.5999 17.6532 12.5999 19.019V20.394H16.0833C17.0916 20.394 17.9166 19.569 17.9166 18.5607V14.894H19.2916C20.5566 14.894 21.5833 13.8674 21.5833 12.6024C21.5833 11.3374 20.5566 10.3107 19.2916 10.3107Z" fill="#EFF2F6"/>
</g>
<defs>
<clipPath id="clip0_319_59">
<rect width="22" height="22" fill="white" transform="translate(0.5 0.227417)"/>
</clipPath>
</defs>
</svg>
